<?xml version="1.0" encoding="utf-8"?><svg viewBox="0 0 50 50" xmlns="http://www.w3.org/2000/svg" xmlns:xlink="http://www.w3.org/1999/xlink"><style>:root>svg{display:none}:root>svg:target{display:block}</style><svg fill="none" viewBox="0 0 50 50" id="bonus" xmlns="http://www.w3.org/2000/svg"><rect width="50" height="50" rx="25" fill="#FDF3E3"/><path d="M26.417 25h4.25l-7.084 9.916v-7.083h-4.25l7.084-9.917V25zm-2.834-8.5h-5.666v19.833h14.166V16.5h-5.666v-2.834h-2.834V16.5zm-2.833-2.834V12.25a1.417 1.417 0 011.417-1.417h5.666a1.417 1.417 0 011.417 1.417v1.416h4.25a1.417 1.417 0 011.417 1.417V37.75a1.417 1.417 0 01-1.417 1.416h-17a1.417 1.417 0 01-1.416-1.416V15.083a1.417 1.417 0 011.416-1.417h4.25z" fill="#F0B14E"/></svg><svg fill="none" viewBox="0 0 50 50" id="cake" xmlns="http://www.w3.org/2000/svg"><rect width="50" height="50" rx="25" fill="#E9F6EB"/><path d="M29.958 10.833a4.959 4.959 0 014.87 5.898l-.022.093a6.377 6.377 0 01.43 11.94l-1.54 9.218a1.416 1.416 0 01-1.396 1.184H17.7a1.416 1.416 0 01-1.397-1.184l-1.458-8.74a4.25 4.25 0 01-1.174-8.252l-.004-.24a8.5 8.5 0 0112.146-7.68 4.954 4.954 0 014.145-2.237zM20.75 29.25h-3.032l1.182 7.083h1.85V29.25zm5.667 0h-2.834v7.083h2.834V29.25zm5.863 0h-3.03v7.083h1.849l1.181-7.083zM22.167 15.083c-3.035 0-5.513 2.386-5.66 5.337l-.007.279.004.24a2.834 2.834 0 01-1.68 2.64l-.213.083a1.418 1.418 0 00.472 2.754h17.709a3.543 3.543 0 10-1.355-6.814l-.248.115a2.833 2.833 0 01-3.772-1.14l-.1-.193a5.667 5.667 0 00-5.15-3.301zm7.791-1.417a2.126 2.126 0 00-1.823 1.033 8.508 8.508 0 011.757 2.5 6.305 6.305 0 012.048-.643 2.126 2.126 0 00-1.982-2.89z" fill="#5DBD6D"/></svg><svg fill="none" viewBox="0 0 50 50" id="hearth" xmlns="http://www.w3.org/2000/svg"><rect width="50" height="50" rx="25" fill="#FDF3E3"/><path d="M31.375 12.25c4.304 0 7.791 3.542 7.791 8.5 0 9.917-10.624 15.583-14.166 17.708-2.8-1.68-10.034-5.577-12.936-12.04l-2.648-.001v-2.834h1.715a13.505 13.505 0 01-.298-2.833c0-4.958 3.542-8.5 7.792-8.5 2.635 0 4.958 1.417 6.375 2.833 1.416-1.416 3.74-2.833 6.375-2.833zm0 2.833c-1.524 0-3.174.808-4.372 2.004L25 19.09l-2.003-2.003c-1.199-1.196-2.848-2.004-4.372-2.004-2.748 0-4.959 2.346-4.959 5.667 0 .97.128 1.915.379 2.833h3.07l2.927-4.879 4.25 7.084 1.323-2.205h6.468v2.834h-4.865l-2.927 4.879-4.25-7.084-1.323 2.205h-3.482c1.12 1.946 2.812 3.78 5.01 5.529a38.099 38.099 0 003.43 2.408c.424.268.844.524 1.324.81.48-.286.9-.542 1.323-.808a38.18 38.18 0 003.428-2.41c4.223-3.358 6.582-7.027 6.582-11.196 0-3.343-2.177-5.667-4.958-5.667z" fill="#F0B14E"/></svg><svg fill="none" viewBox="0 0 47 47" id="icon-1" xmlns="http://www.w3.org/2000/svg"><rect width="47" height="47" rx="10" fill="#FAE3E8"/><path d="M11.454 32V15.273h11.075v2.916H14.99v3.985h6.804v2.916H14.99V32h-3.536zm18.185.245c-1.29 0-2.401-.261-3.332-.784a5.37 5.37 0 01-2.14-2.238c-.501-.97-.752-2.115-.752-3.439 0-1.29.25-2.423.752-3.397a5.555 5.555 0 012.115-2.279c.915-.545 1.988-.817 3.218-.817.828 0 1.598.134 2.312.4a5.128 5.128 0 011.878 1.185c.54.528.959 1.192 1.258 1.993.3.795.45 1.726.45 2.793v.956H24.803V24.46h7.318c0-.5-.109-.944-.327-1.331a2.34 2.34 0 00-.906-.907c-.381-.223-.825-.334-1.332-.334-.528 0-.996.122-1.404.367-.403.24-.72.564-.948.972a2.744 2.744 0 00-.351 1.348v2.05c0 .62.114 1.157.343 1.609.234.452.564.8.988 1.045.425.245.929.368 1.511.368.387 0 .74-.055 1.062-.164.321-.109.596-.272.825-.49a2.13 2.13 0 00.523-.8l3.218.212a4.394 4.394 0 01-1.005 2.026c-.5.572-1.149 1.018-1.944 1.34-.79.315-1.701.473-2.736.473z" fill="#F2859A"/></svg><svg fill="none" viewBox="0 0 47 47" id="icon-2" xmlns="http://www.w3.org/2000/svg"><rect width="47" height="47" rx="10" fill="#E6F9E6"/><path d="M16.454 32V15.273h6.697c1.23 0 2.257.182 3.08.547.822.365 1.44.871 1.853 1.52.414.642.621 1.382.621 2.22 0 .654-.13 1.229-.392 1.724-.261.49-.62.893-1.078 1.209-.452.31-.97.53-1.552.662v.163a3.746 3.746 0 011.789.539c.56.332 1.015.798 1.364 1.397.348.593.523 1.3.523 2.123 0 .888-.22 1.68-.662 2.377-.435.691-1.08 1.239-1.936 1.642-.854.402-1.908.604-3.16.604h-7.147zm3.536-2.891h2.884c.985 0 1.704-.188 2.156-.564.452-.381.678-.887.678-1.52 0-.462-.112-.87-.335-1.224a2.275 2.275 0 00-.956-.833c-.408-.202-.896-.302-1.462-.302H19.99v4.443zm0-6.837h2.622c.485 0 .915-.084 1.29-.253.382-.174.681-.42.9-.735.222-.316.334-.694.334-1.135 0-.605-.215-1.092-.645-1.462-.425-.37-1.03-.556-1.813-.556H19.99v4.141z" fill="#5DBD6D"/></svg><svg fill="none" viewBox="0 0 47 47" id="icon-3" xmlns="http://www.w3.org/2000/svg"><rect width="47" height="47" rx="10" fill="#E6F9E6"/><path d="M24.384 32h-5.93V15.273h5.979c1.682 0 3.13.335 4.345 1.004a6.777 6.777 0 012.801 2.867c.659 1.247.989 2.739.989 4.476 0 1.742-.33 3.24-.989 4.492a6.792 6.792 0 01-2.818 2.883c-1.22.67-2.679 1.005-4.377 1.005zm-2.394-3.03h2.247c1.045 0 1.924-.185 2.638-.556.718-.375 1.258-.955 1.617-1.74.365-.789.547-1.807.547-3.054 0-1.236-.182-2.246-.547-3.03-.36-.784-.896-1.361-1.61-1.732-.713-.37-1.592-.555-2.637-.555H21.99V28.97z" fill="#5DBD6D"/></svg><svg fill="none" viewBox="0 0 47 47" id="icon-4" xmlns="http://www.w3.org/2000/svg"><rect width="47" height="47" rx="10" fill="#FBF2E3"/><path d="M7.454 15.273h4.361l4.607 11.238h.196l4.606-11.238h4.362V32h-3.43V21.113h-.14l-4.328 10.805h-2.336l-4.329-10.846h-.139V32h-3.43V15.273zm26.632 21.693c-1.127 0-2.093-.155-2.9-.466-.8-.305-1.437-.721-1.91-1.25a3.842 3.842 0 01-.923-1.78l3.218-.433c.098.25.253.485.465.703.213.218.493.392.842.522.353.137.784.205 1.29.205.757 0 1.38-.185 1.87-.556.496-.365.744-.977.744-1.837v-2.296h-.147a3.308 3.308 0 01-.686.989c-.305.31-.697.563-1.176.76-.48.195-1.051.293-1.716.293-.942 0-1.8-.218-2.573-.653-.767-.441-1.38-1.114-1.837-2.018-.452-.909-.678-2.058-.678-3.446 0-1.421.231-2.608.694-3.561.463-.953 1.078-1.666 1.846-2.14a4.77 4.77 0 012.54-.71c.703 0 1.29.119 1.764.359.474.234.855.528 1.144.882.294.348.52.691.678 1.029h.13v-2.108h3.455v12.669c0 1.067-.261 1.96-.784 2.678-.523.72-1.247 1.258-2.172 1.618-.92.364-1.98.547-3.178.547zm.074-7.76c.56 0 1.035-.138 1.421-.416.392-.283.692-.686.898-1.209.213-.528.319-1.16.319-1.895 0-.735-.103-1.372-.31-1.91-.207-.545-.507-.967-.899-1.267-.392-.3-.868-.449-1.43-.449-.57 0-1.053.155-1.445.466-.392.305-.689.73-.89 1.274-.202.544-.302 1.173-.302 1.886 0 .725.1 1.35.302 1.879.207.523.504.928.89 1.217.392.283.874.425 1.446.425z" fill="#EFB65D"/></svg><svg fill="none" viewBox="0 0 50 50" id="info" xmlns="http://www.w3.org/2000/svg"><rect width="50" height="50" rx="25" fill="#FCE3E8"/><path d="M25 39.166c-7.824 0-14.166-6.342-14.166-14.166 0-7.825 6.342-14.167 14.166-14.167 7.824 0 14.167 6.342 14.167 14.167 0 7.824-6.343 14.166-14.167 14.166zm0-2.833a11.333 11.333 0 100-22.666 11.333 11.333 0 000 22.666zm-1.416-7.083h2.833v2.833h-2.834V29.25zm0-11.334h2.833v8.5h-2.834v-8.5z" fill="#F37A92"/></svg><svg fill="none" viewBox="0 0 50 50" id="lamp" xmlns="http://www.w3.org/2000/svg"><rect width="50" height="50" rx="25" fill="#E9F6EB"/><path d="M22.128 33.5h5.744c.187-1.703 1.055-3.108 2.465-4.642.16-.173 1.178-1.229 1.299-1.379a8.5 8.5 0 10-13.274-.002c.122.151 1.143 1.208 1.3 1.38 1.411 1.535 2.28 2.94 2.466 4.643zm5.706 2.834h-5.667v1.416h5.666v-1.416zM16.151 29.25a11.334 11.334 0 1117.694.003c-.878 1.094-3.18 2.83-3.18 4.956v3.541a2.833 2.833 0 01-2.832 2.834h-5.667a2.834 2.834 0 01-2.834-2.834V34.21c0-2.126-2.302-3.862-3.181-4.959zm10.265-7.078h3.541l-6.374 8.5v-5.666h-3.542l6.375-8.506v5.674-.002z" fill="#5DBD6D"/></svg><svg fill="none" viewBox="0 0 17 17" id="not-right" xmlns="http://www.w3.org/2000/svg"><path d="M2.261 15.118C4.727 11.588 10.927 3.824 16.001 1M14.74 15.118C12.272 11.588 6.072 3.824 1 1" stroke="#A8A7A7" stroke-width="2" stroke-linecap="round" stroke-linejoin="round"/></svg><svg fill="none" viewBox="0 0 19 15" id="right" xmlns="http://www.w3.org/2000/svg"><path d="M1 7.5c1.7 1.354 5.27 4.55 5.95 6.5C8.933 10.75 13.92 3.6 18 1" stroke="#5DBD6D" stroke-width="2" stroke-linecap="round" stroke-linejoin="round"/></svg><svg fill="none" viewBox="0 0 50 50" id="scales" xmlns="http://www.w3.org/2000/svg"><rect width="50" height="50" rx="25" fill="#FCE3E8"/><path d="M26.417 10.833v1.81l7.083 2.364 5.145-1.715.897 2.686-4.295 1.433 4.386 12.058a8.48 8.48 0 01-6.133 2.614 8.478 8.478 0 01-6.133-2.614l4.383-12.058-5.333-1.78v19.285h5.666v2.834H17.917v-2.834h5.666V15.631l-5.338 1.78 4.386 12.058a8.475 8.475 0 01-6.131 2.614 8.478 8.478 0 01-6.133-2.614l4.383-12.058-4.292-1.431.897-2.69 5.145 1.715 7.083-2.362v-1.81h2.834zM33.5 20.896l-2.774 7.63c.832.469 1.78.724 2.774.724.992 0 1.94-.255 2.774-.723L33.5 20.894v.002zm-17 0l-2.774 7.63c.832.469 1.78.724 2.774.724.992 0 1.94-.255 2.774-.723L16.5 20.894v.002z" fill="#F37A92"/></svg><svg fill="none" viewBox="0 0 50 50" id="share" xmlns="http://www.w3.org/2000/svg"><rect width="50" height="50" rx="25" fill="#FDF3E3"/><path d="M26.587 32.116l-5.949-3.244a5.666 5.666 0 110-7.742l5.95-3.244a5.667 5.667 0 111.359 2.486l-5.95 3.244c.228.909.228 1.86 0 2.768l5.948 3.244a5.667 5.667 0 11-1.358 2.486v.002zM16.5 27.833a2.833 2.833 0 100-5.666 2.833 2.833 0 000 5.666zm15.583-8.5a2.834 2.834 0 100-5.667 2.834 2.834 0 000 5.667zm0 17a2.834 2.834 0 100-5.667 2.834 2.834 0 000 5.667z" fill="#F0B14E"/></svg><svg fill="none" viewBox="0 0 50 50" id="timer" xmlns="http://www.w3.org/2000/svg"><rect width="50" height="50" rx="25" fill="#FCE3E8"/><rect x="13.25" y="13.25" width="23.5" height="23.5" rx="6.75" stroke="#F37A92" stroke-width="2.5"/><path d="M18.998 24.774c-.547.07-1.056-.318-1.048-.87a7.002 7.002 0 017.017-6.898 7.002 7.002 0 016.982 6.934c.005.552-.506.938-1.054.864l-.144-.02c-.547-.073-.92-.58-.96-1.13a4.855 4.855 0 00-9.682-.025c-.043.55-.419 1.055-.967 1.126l-.144.019z" fill="#F37A92"/><circle cx="25" cy="23.5" r="1.5" fill="#F37A92"/><path fill-rule="evenodd" clip-rule="evenodd" d="M27.428 21.265a1 1 0 01-.072 1.412l-1.113 1.006-1.34-1.484 1.112-1.006a1 1 0 011.413.072z" fill="#F37A92"/></svg></svg>